<?xml version="1.0" standalone="no"?>
<!DOCTYPE svg PUBLIC "-//W3C//DTD SVG 20010904//EN"
 "http://www.w3.org/TR/2001/REC-SVG-20010904/DTD/svg10.dtd">
<svg version="1.0" xmlns="http://www.w3.org/2000/svg"
 width="1080.000000pt" height="800.000000pt" viewBox="0 0 1080.000000 800.000000"
 preserveAspectRatio="xMidYMid meet">

<g transform="translate(0.000000,800.000000) scale(0.100000,-0.100000)"
fill="rgb(19, 109, 134)" stroke="none">
<path d="M5207 7761 c-304 -145 -474 -207 -672 -242 -114 -21 -161 -24 -390
-24 -287 0 -363 9 -650 71 -180 39 -254 62 -370 112 -44 18 -90 38 -102 43
l-23 9 0 -881 0 -880 136 2 137 1 -7 322 c-19 1005 -20 1046 -4 1046 8 0 62
-9 121 -20 187 -34 356 -44 757 -44 547 0 588 7 995 169 143 57 291 111 328
121 63 15 73 15 133 1 36 -9 174 -60 307 -113 427 -170 468 -178 982 -178 384
0 531 9 772 49 81 13 149 22 152 19 6 -6 -20 -1356 -26 -1367 -3 -4 59 -7 136
-6 l141 1 0 879 0 879 -52 -21 c-238 -95 -359 -131 -571 -169 -484 -88 -896
-60 -1305 90 -42 15 -169 69 -282 120 -239 107 -322 140 -353 139 -12 0 -143
-58 -290 -128z"/>
<path d="M5230 6606 c-321 -44 -686 -206 -1003 -445 -150 -112 -229 -214 -213
-275 9 -35 80 -70 266 -131 243 -80 507 -219 757 -400 53 -38 178 -149 278
-246 100 -97 191 -178 202 -181 44 -12 87 23 273 216 229 238 654 498 1000
611 253 83 291 112 255 189 -39 81 -243 256 -422 363 -264 156 -503 243 -788
289 -135 21 -480 27 -605 10z m599 -236 c220 -37 362 -84 561 -186 146 -75
260 -157 274 -196 15 -42 -11 -61 -147 -108 -266 -91 -520 -256 -838 -546
l-155 -142 -140 142 c-254 259 -556 455 -851 552 -149 48 -170 72 -118 140 63
82 343 231 543 288 119 34 314 71 417 80 95 7 339 -5 454 -24z"/>
<path d="M3067 5617 c-19 -6 -31 -22 -47 -63 -24 -66 -24 -73 -4 -102 36 -51
115 -71 402 -102 106 -11 197 -20 201 -20 5 0 11 -132 14 -292 7 -362 24 -480
97 -685 178 -500 727 -944 1331 -1076 193 -43 283 -52 484 -51 272 2 493 41
735 131 501 187 915 592 1079 1058 49 138 61 242 68 598 3 174 9 317 12 317 3
0 76 7 161 15 280 28 386 51 432 92 38 34 11 144 -39 164 -69 27 -423 -24
-746 -107 -402 -103 -857 -369 -1192 -699 -221 -217 -348 -399 -466 -670 -35
-80 -66 -145 -69 -145 -3 0 -48 86 -100 192 -146 298 -283 488 -490 679 -308
285 -692 500 -1120 628 -124 37 -513 120 -656 139 -33 5 -72 4 -87 -1z m998
-437 c208 -100 222 -129 130 -269 -66 -100 -85 -159 -85 -259 0 -228 158 -468
365 -555 84 -35 130 -41 285 -41 162 0 210 8 337 55 83 30 99 23 151 -78 69
-133 132 -356 132 -468 0 -43 -5 -60 -21 -76 -20 -20 -28 -21 -113 -15 -178
14 -320 54 -501 141 -317 153 -606 416 -763 695 -134 238 -201 822 -106 917
29 29 30 29 189 -47z m3099 28 c55 -87 48 -459 -14 -711 -61 -246 -291 -534
-595 -743 -113 -78 -332 -184 -477 -232 -118 -39 -433 -101 -446 -88 -8 9 55
366 79 443 45 146 110 243 162 243 11 0 52 -11 91 -24 172 -59 432 -61 598 -5
130 43 250 155 317 294 45 91 61 159 61 250 0 129 -42 245 -125 345 -55 67
-62 86 -40 110 31 34 295 137 357 139 10 1 24 -9 32 -21z m-2587 -313 c61 -26
70 -85 22 -160 -17 -27 -33 -63 -36 -80 -10 -64 46 -132 128 -155 19 -6 86
-10 149 -10 132 0 170 -15 196 -75 20 -48 18 -69 -10 -102 -33 -39 -84 -53
-196 -53 -159 0 -292 49 -402 149 -99 89 -115 154 -82 317 23 110 55 168 104
187 20 8 87 -2 127 -18z m2042 -30 c72 -68 105 -141 106 -236 l0 -77 -59 -87
c-106 -156 -160 -178 -419 -173 -128 2 -179 7 -201 18 -41 21 -52 43 -41 77
15 41 81 69 224 93 143 24 177 39 196 83 7 18 17 93 22 167 12 167 18 180 79
180 39 0 51 -5 93 -45z"/>
<path d="M3375 3906 c-17 -12 -18 -18 -7 -52 14 -47 145 -268 237 -399 217
-312 509 -636 760 -846 327 -271 669 -480 970 -590 80 -29 101 -33 195 -33 94
0 115 4 195 33 298 109 682 341 975 590 273 232 616 630 853 991 77 117 157
264 157 287 0 19 -43 33 -97 33 -106 0 -181 -70 -371 -342 -181 -258 -275
-372 -477 -574 -375 -377 -737 -628 -1055 -735 -114 -38 -131 -41 -195 -35
-283 24 -673 259 -1123 675 -193 179 -353 366 -560 658 -162 228 -221 296
-285 327 -58 29 -141 35 -172 12z"/>


</g>
</svg>